nColumns=28
nRows=26
DataType=double
version=3
OpenSimVersion=4.1
endheader
time	ground_force_1_vx	ground_force_1_vy	ground_force_1_vz	ground_force_1_px	ground_force_1_py	ground_force_1_pz	ground_force_1_mx	ground_force_1_my	ground_force_1_mz	ground_force_2_vx	ground_force_2_vy	ground_force_2_vz	ground_force_2_px	ground_force_2_py	ground_force_2_pz	ground_force_2_mx	ground_force_2_my	ground_force_2_mz	ground_force_3_vx	ground_force_3_vy	ground_force_3_vz	ground_force_3_px	ground_force_3_py	ground_force_3_pz	ground_force_3_mx	ground_force_3_my	ground_force_3_mz
0	-0.881579	283.967	-36.5521	-0.218042	0.006	-0.407208	0	-0.742212	0	0.239477	305.499	36.2275	-0.215833	0.006	-0.785539	0	1.58139	0	0	0	0	0	0	0	0	0	0
0.01	-0.795356	284.154	-36.5235	-0.217975	0.006	-0.407248	0	-0.756267	0	0.191904	305.575	36.2239	-0.215912	0.006	-0.785636	0	1.54177	0	0	0	0	0	0	0	0	0	0
0.02	-0.706267	284.326	-36.4963	-0.217893	0.006	-0.407281	0	-0.76993	0	0.155851	305.663	36.2264	-0.21598	0.006	-0.785735	0	1.50369	0	0	0	0	0	0	0	0	0	0
0.03	-0.616426	284.477	-36.4722	-0.217792	0.006	-0.407303	0	-0.782655	0	0.1339	305.766	36.2366	-0.216029	0.006	-0.785833	0	1.46837	0	0	0	0	0	0	0	0	0	0
0.04	-0.527629	284.599	-36.4523	-0.217666	0.006	-0.40731	0	-0.794027	0	0.126914	305.889	36.2567	-0.216049	0.006	-0.785931	0	1.4364	0	0	0	0	0	0	0	0	0	0
0.05	-0.441614	284.69	-36.4376	-0.217507	0.006	-0.4073	0	-0.8037	0	0.134021	306.038	36.2887	-0.216033	0.006	-0.786029	0	1.40778	0	0	0	0	0	0	0	0	0	0
0.06	-0.360129	284.749	-36.4298	-0.217308	0.006	-0.407271	0	-0.811404	0	0.152494	306.221	36.3346	-0.215971	0.006	-0.786131	0	1.38205	0	0	0	0	0	0	0	0	0	0
0.07	-0.285234	284.775	-36.4302	-0.217061	0.006	-0.407221	0	-0.816867	0	0.178146	306.446	36.3958	-0.215853	0.006	-0.786238	0	1.35859	0	0	0	0	0	0	0	0	0	0
0.08	-0.219489	284.769	-36.4409	-0.216756	0.006	-0.40715	0	-0.819772	0	0.205531	306.718	36.4733	-0.215672	0.006	-0.786354	0	1.33686	0	0	0	0	0	0	0	0	0	0
0.09	-0.166194	284.733	-36.4636	-0.216385	0.006	-0.407057	0	-0.819796	0	0.228283	307.043	36.5672	-0.21542	0.006	-0.78648	0	1.31637	0	0	0	0	0	0	0	0	0	0
0.1	-0.129315	284.669	-36.5	-0.215941	0.006	-0.406941	0	-0.816692	0	0.239703	307.422	36.6772	-0.215094	0.006	-0.78662	0	1.29658	0	0	0	0	0	0	0	0	0	0
0.11	-0.113361	284.58	-36.5514	-0.215418	0.006	-0.406802	0	-0.810234	0	0.233145	307.852	36.8024	-0.21469	0.006	-0.786776	0	1.27711	0	0	0	0	0	0	0	0	0	0
0.12	-0.122707	284.47	-36.6185	-0.214814	0.006	-0.406642	0	-0.800222	0	0.202326	308.328	36.9423	-0.214208	0.006	-0.78695	0	1.25775	0	0	0	0	0	0	0	0	0	0
0.13	-0.161334	284.347	-36.7018	-0.214125	0.006	-0.406462	0	-0.786527	0	0.141528	308.842	37.0963	-0.213646	0.006	-0.787142	0	1.23851	0	0	0	0	0	0	0	0	0	0
0.14	-0.232387	284.22	-36.8013	-0.213357	0.006	-0.406265	0	-0.769152	0	0.04611	309.39	37.2644	-0.213008	0.006	-0.787353	0	1.21955	0	0	0	0	0	0	0	0	0	0
0.15	-0.337503	284.101	-36.9167	-0.212514	0.006	-0.406055	0	-0.748253	0	-0.0870514	309.967	37.4472	-0.212294	0.006	-0.787583	0	1.20117	0	0	0	0	0	0	0	0	0	0
0.16	-0.477377	284.006	-37.0477	-0.211606	0.006	-0.405835	0	-0.724083	0	-0.259517	310.572	37.6459	-0.211508	0.006	-0.787831	0	1.18368	0	0	0	0	0	0	0	0	0	0
0.17	-0.651992	283.944	-37.1927	-0.210642	0.006	-0.405611	0	-0.697021	0	-0.471483	311.204	37.8617	-0.210655	0.006	-0.7881	0	1.16737	0	0	0	0	0	0	0	0	0	0
0.18	-0.860801	283.924	-37.3499	-0.209635	0.006	-0.405384	0	-0.667531	0	-0.722261	311.857	38.0953	-0.209739	0.006	-0.788389	0	1.15241	0	0	0	0	0	0	0	0	0	0
0.19	-1.10288	283.945	-37.5172	-0.208594	0.006	-0.405157	0	-0.636143	0	-1.01076	312.522	38.3469	-0.208763	0.006	-0.788699	0	1.13877	0	0	0	0	0	0	0	0	0	0
0.2	-1.37693	284.001	-37.6928	-0.207532	0.006	-0.404932	0	-0.603498	0	-1.33643	313.183	38.6162	-0.207731	0.006	-0.789031	0	1.12632	0	0	0	0	0	0	0	0	0	0
0.21	-1.68144	284.078	-37.8754	-0.206461	0.006	-0.404712	0	-0.570357	0	-1.70012	313.816	38.9018	-0.206647	0.006	-0.789384	0	1.11505	0	0	0	0	0	0	0	0	0	0
0.22	-2.0148	284.163	-38.0631	-0.20539	0.006	-0.404498	0	-0.537508	0	-2.10401	314.396	39.2012	-0.205518	0.006	-0.789756	0	1.10514	0	0	0	0	0	0	0	0	0	0
0.23	-2.37526	284.237	-38.2543	-0.204334	0.006	-0.404291	0	-0.505751	0	-2.55098	314.894	39.5106	-0.204347	0.006	-0.790144	0	1.09688	0	0	0	0	0	0	0	0	0	0
0.24	-2.76047	284.286	-38.4478	-0.203303	0.006	-0.404093	0	-0.475927	0	-3.04427	315.282	39.8253	-0.203141	0.006	-0.790547	0	1.09052	0	0	0	0	0	0	0	0	0	0
0.25	-3.16715	284.302	-38.6428	-0.202311	0.006	-0.403905	0	-0.448888	0	-3.58692	315.537	40.1409	-0.201906	0.006	-0.790959	0	1.08625	0	0	0	0	0	0	0	0	0	0
